<svg width="200" height="80" xmlns="http://www.w3.org/2000/svg" version="1.1">

 <g>
  <title>Truist Homepage</title>
  <g id="svg_1">
   <g id="truist-logo" fill="none" fill-rule="evenodd">
    <g id="global/truist-logo--purple" fill="#2E1A47">
     <path d="m175.53958,55.00203l0,-13.63735l-9.42459,0l0,6.75808l-3.60586,0l0,-17.12201l3.60586,0l0,6.75807l9.42459,0l0,-13.63735l-30.88012,0l0,13.63735l9.42502,0l0,-6.75807l3.60587,0l0,17.12201l-3.60587,0l0,-6.75808l-9.42502,0l0,13.63735l30.88012,0zm-34.0016,-0.27271l0,-30.33513c0,-2.1211 1.27309,-3.39419 3.39419,-3.39419l30.3347,0c2.12153,0 3.39419,1.27309 3.39419,3.39419l0,30.33513c0,2.1211 -1.27266,3.39419 -3.39419,3.39419l-30.3347,0c-2.1211,0 -3.39419,-1.27309 -3.39419,-3.39419zm-19.78593,-4.55949l0,-17.81937l-6.72777,0l0,-3.39419l17.15231,0l0,3.39419l-6.72734,0l0,17.81937l-3.6972,0zm-17.63496,-9.12201c-2.84876,-0.96964 -5.93993,-2.1817 -5.93993,-6.15161c0,-3.87901 2.87906,-6.39402 7.30392,-6.39402c1.9999,0 3.66647,0.45408 5.15167,1.12115l0,3.87901c-1.66701,-1.03068 -3.33358,-1.63671 -5.15167,-1.63671c-2.18213,0 -3.54612,1.03024 -3.54612,2.66695c0,1.93972 1.78821,2.51545 4.60667,3.48509c2.84876,0.96965 5.9395,2.1817 5.9395,6.15161c0,3.93961 -2.93966,6.45506 -7.455,6.45506c-2.45441,0 -4.45473,-0.63633 -6.12131,-1.4852l0,-3.93918c1.93972,1.21206 3.87901,2.0605 6.12131,2.0605c2.27304,0 3.6972,-1.09085 3.6972,-2.72756c0,-1.93929 -1.78778,-2.51501 -4.60624,-3.48509zm-15.81775,9.12201l3.6972,0l0,-21.21356l-3.6972,0l0,21.21356zm-24.02855,-8.21297l0,-13.00059l3.6972,0l0,12.94042c0,3.30328 1.81851,5.33347 4.81835,5.33347c3.00027,0 4.81835,-2.03019 4.81835,-5.33347l0,-12.94042l3.6972,0l0,13.00059c0,5.1521 -3.42449,8.66749 -8.51555,8.66749c-5.09106,0 -8.51555,-3.51539 -8.51555,-8.66749zm-13.11963,-2.63622c2.0908,0 3.6063,-1.45446 3.6063,-3.51539c0,-2.03019 -1.5155,-3.48509 -3.6063,-3.48509l-4.57637,0l0,7.00048l4.57637,0zm0.66663,6.57626c-1.03024,-2.12152 -1.5761,-3.27298 -3.96991,-3.27298l-1.27309,0l0,7.54591l-3.69677,0l0,-21.21356l8.30301,0c4.33396,0 7.36453,2.78816 7.36453,6.75808c0,3.27298 -1.93972,5.48498 -4.93955,6.24251c1.36312,1.3943 1.81764,3.21281 2.72669,4.12185c0.51512,0.51513 1.06098,0.81814 1.90985,0.81814c0.33288,0 0.60559,-0.0303 0.84844,-0.0909l0,3.36388c-0.45452,0.0909 -0.87918,0.15151 -1.3337,0.15151c-3.6669,0 -4.78805,-2.03063 -5.9395,-4.42444zm-24.09002,4.27293l0,-17.81937l-6.72777,0l0,-3.39419l17.15231,0l0,3.39419l-6.72734,0l0,17.81937l-3.6972,0l0,0z" id="tru_lg_hrz_rgb_pos"/>
    </g>
   </g>
  </g>
 </g>
</svg>